# xmcd CD database file
#
# Track frame offsets:
#	150
#	7700
#	28580
#	46650
#	71552
#	88062
#	119662
#	134722
#	163855
#	178835
#	199085
#	218702
#	242955
#	265752
#	282272
#	308622
#	331897
#
# Disc length: 4478 seconds
#
# Revision: 0
# Processed by: cddbd v1.5.1PL0 Copyright (c) Steve Scherf et al.
# Submitted via: CDex 1.50
#
DISCID=f4117c11
DTITLE=Benkö Dixiland Band - Take the "A" Train
DYEAR=1900
DGENRE=Jazz
TTITLE0=Take the "A" Train Version 1
TTITLE1=Take the "A" Train Version 2
TTITLE2=Take the "A" Train Version 3
TTITLE3=Take the "A" Train Version 4
TTITLE4=Take the "A" Train Version 5
TTITLE5=Take the "A" Train Version 6
TTITLE6=Take the "A" Train Version 7
TTITLE7=Take the "A" Train Version 8
TTITLE8=Take the "A" Train Version 9
TTITLE9=Take the "A" Train Version 10
TTITLE10=Take the "A" Train Version 11
TTITLE11=Take the "A" Train Version 12
TTITLE12=Take the "A" Train Version 13
TTITLE13=Take the "A" Train Version 14
TTITLE14=Take the "A" Train Version 15
TTITLE15=Take the "A" Train Version 16
TTITLE16=Take the "A" Train Version 17
EXTD=
EXTT0=
EXTT1=
EXTT2=
EXTT3=
EXTT4=
EXTT5=
EXTT6=
EXTT7=
EXTT8=
EXTT9=
EXTT10=
EXTT11=
EXTT12=
EXTT13=
EXTT14=
EXTT15=
EXTT16=
PLAYORDER=
